<?xml version="1.0" standalone="no"?><!DOCTYPE svg PUBLIC "-//W3C//DTD SVG 1.1//EN" "http://www.w3.org/Graphics/SVG/1.1/DTD/svg11.dtd"><svg t="1744547223493" class="icon" viewBox="0 0 1024 1024" version="1.1" xmlns="http://www.w3.org/2000/svg" p-id="34787" xmlns:xlink="http://www.w3.org/1999/xlink" width="200" height="200"><path d="M857.6 646.4l51.2 32c12.8 6.4 12.8 19.2 6.4 32l-6.4 6.4-371.2 224c-12.8 6.4-32 6.4-44.8 0l-371.2-224c-12.8-6.4-12.8-19.2-6.4-32l6.4-6.4 51.2-32L512 857.6l345.6-211.2z m0-198.4l51.2 32c12.8 6.4 12.8 19.2 6.4 32l-6.4 6.4L512 755.2 115.2 518.4c-6.4-6.4-12.8-19.2-6.4-32l6.4-6.4 51.2-32L512 652.8 857.6 448zM531.2 57.6l371.2 224c12.8 6.4 12.8 19.2 6.4 32l-6.4 6.4L512 556.8 115.2 320c-6.4-6.4-12.8-19.2-6.4-32l6.4-6.4L486.4 57.6c19.2-12.8 32-12.8 44.8 0zM512 140.8L249.6 300.8 512 454.4l262.4-153.6L512 140.8z" fill="#b45729" p-id="34788"></path></svg>