<?xml version="1.0" standalone="no"?><!DOCTYPE svg PUBLIC "-//W3C//DTD SVG 1.1//EN" "http://www.w3.org/Graphics/SVG/1.1/DTD/svg11.dtd"><svg t="1744546186704" class="icon" viewBox="0 0 1024 1024" version="1.1" xmlns="http://www.w3.org/2000/svg" p-id="2651" xmlns:xlink="http://www.w3.org/1999/xlink" width="200" height="200"><path d="M857.6 938.666667c35.456 0 56.106667-27.648 65.28-46.08 10.538667-20.992 15.786667-46.976 15.786667-73.386667V204.8c0-26.410667-5.248-52.394667-15.786667-73.386667C913.749333 112.981333 893.098667 85.333333 857.6 85.333333H166.4c-35.456 0-56.106667 27.648-65.28 46.08C90.538667 152.405333 85.333333 178.389333 85.333333 204.8v614.4c0 26.410667 5.248 52.394667 15.786667 73.386667 9.173333 18.432 29.824 46.08 65.28 46.08h691.2zM550.698667 408.661333a42.581333 42.581333 0 0 0-8.533334-12.16L422.997333 277.333333l106.666667-106.666666h259.029333l-237.994666 237.994666z m-56.704 56.704L170.666667 788.693333v-258.986666l192-192 119.168 119.125333a42.581333 42.581333 0 0 0 12.16 8.533333zM853.333333 226.730667v267.605333l-256 256-133.802666-133.802667L853.333333 226.730667zM226.730667 853.333333l176.469333-176.469333L537.002667 810.666667l-42.666667 42.666666H226.730667z m388.266666 0L853.333333 614.997333V819.2c0 15.189333-2.986667 27.136-6.229333 34.133333h-232.106667zM170.666667 409.002667V204.8c0-15.189333 2.986667-27.136 6.229333-34.133333h232.106667L170.666667 409.002667z" fill="#b45729" p-id="2652"></path></svg>