<?xml version="1.0" standalone="no"?><!DOCTYPE svg PUBLIC "-//W3C//DTD SVG 1.1//EN" "http://www.w3.org/Graphics/SVG/1.1/DTD/svg11.dtd"><svg t="1744546474513" class="icon" viewBox="0 0 1024 1024" version="1.1" xmlns="http://www.w3.org/2000/svg" p-id="8453" xmlns:xlink="http://www.w3.org/1999/xlink" width="200" height="200"><path d="M495.424 116.608a80 80 0 0 1 113.12-1.952l287.744 277.856a80 80 0 0 1 1.952 113.12l-111.136 115.104a80 80 0 0 1-113.12 1.952l-287.744-277.856a80 80 0 0 1-1.952-113.12l28.064-29.12-8.672-7.456-116.864 123.616 212.736 202.048a32 32 0 0 1 4.48 41.152l-2.4 3.072-22.4 25.664 9.088 8.544a48 48 0 0 1 6.72 62.048l-2.88 3.744-201.376 239.968a48 48 0 0 1-67.648 5.888l-2.368-2.144-101.984-105.888a48.16 48.16 0 0 1 1.856-68.384l232.32-203.136a48 48 0 0 1 64.512 1.184l15.104 14.24 0.64-0.704-213.6-202.848a32 32 0 0 1-3.808-42.112l2.56-3.072 159.744-168.96a32 32 0 0 1 40.96-4.672l3.136 2.368 34.688 29.728z m-111.232 472.448l-207.648 181.472 76.64 79.68 180.256-214.752-49.248-46.4zM564.096 160.64a16 16 0 0 0-22.624 0.416L430.304 276.16a16 16 0 0 0 0.416 22.624l287.712 277.888a16 16 0 0 0 22.624-0.416l111.168-115.072a16 16 0 0 0-0.416-22.624z" fill="#b45729" p-id="8454"></path></svg>