<?xml version="1.0" standalone="no"?><!DOCTYPE svg PUBLIC "-//W3C//DTD SVG 1.1//EN" "http://www.w3.org/Graphics/SVG/1.1/DTD/svg11.dtd"><svg t="1744547907022" class="icon" viewBox="0 0 1024 1024" version="1.1" xmlns="http://www.w3.org/2000/svg" p-id="48925" xmlns:xlink="http://www.w3.org/1999/xlink" width="200" height="200"><path d="M869.91 942H154.09C114.34 942 82 909.66 82 869.91V154.09C82 114.34 114.34 82 154.09 82H869.9c39.75 0 72.09 32.34 72.09 72.09V869.9c0.01 39.76-32.33 72.1-72.08 72.1zM154.09 126.65c-15.13 0-27.44 12.31-27.44 27.44V869.9c0 15.13 12.31 27.44 27.44 27.44H869.9c15.13 0 27.44-12.31 27.44-27.44V154.09c0-15.13-12.31-27.44-27.44-27.44H154.09z" fill="#b45729" p-id="48926"></path><path d="M270.09 795.87c-5.92 0-11.83-2.34-16.22-6.98-8.47-8.96-8.08-23.09 0.87-31.56l504.74-477.55c8.96-8.47 23.09-8.08 31.56 0.87 8.47 8.96 8.08 23.09-0.87 31.56L285.43 789.76a22.24 22.24 0 0 1-15.34 6.11zM489.41 431.73c-6.08 0-12.13-2.47-16.54-7.32-8.29-9.13-7.6-23.25 1.53-31.54l197.42-179.19c9.13-8.29 23.25-7.6 31.53 1.53 8.29 9.13 7.6 23.25-1.53 31.54L504.41 425.94a22.26 22.26 0 0 1-15 5.79zM472.29 793.16c-6.02 0-12.03-2.42-16.43-7.2-8.35-9.07-7.77-23.19 1.3-31.55l215.3-198.25c9.07-8.35 23.19-7.77 31.55 1.3 8.35 9.07 7.77 23.19-1.3 31.55l-215.3 198.25a22.31 22.31 0 0 1-15.12 5.9z" fill="#b45729" p-id="48927"></path></svg>